<svg enable-background="new 0 0 1024 1024" viewBox="0 0 1024 1024" xmlns="http://www.w3.org/2000/svg"><circle cx="512" cy="512" fill="#0046be" r="512"/><path d="m393.5 379.2v149.3h78.2c30.8 0 59.2-10.8 59.2-42.5 0-21.4-15.4-31.2-32.4-36.4 10.4-4.2 22.1-12.9 22.1-31.2 0-23.4-23.2-39.3-54.5-39.3zm47.9 34.8h17.6c7.2 0 12.6 5.6 12.6 11.3 0 5.3-5.7 11-12.6 11h-17.6zm0 53.2h23.2c8.1 0 14.9 6.2 14.9 13.2 0 7.5-6.4 13.7-16.3 13.7h-21.8zm-9.2 77.6v149.3h78.2c30.8 0 59.2-10.8 59.2-42.5 0-21.4-15.4-31.2-32.4-36.4 10.4-4.2 22.1-12.9 22.1-31.2 0-23.4-23.2-39.3-54.5-39.3h-72.6zm47.9 34.8h17.6c7.2 0 12.6 5.6 12.6 11.3 0 5.3-5.7 11-12.6 11h-17.6zm0 53.2h23.2c8.1 0 14.9 6.2 14.9 13.2 0 7.5-6.4 13.7-16.3 13.7h-21.8zm54.5-104.3v-149.3h120.4v36.1h-72.7v19.6h59v33.8h-59v23.9h72.7v35.9zm185.7 4.3c33.9 0 61-19.3 61-50.7 0-50.6-65.8-42.8-65.8-58.5 0-6.1 6.4-9.3 13-9.3 11.3 0 19.5 7.4 19.5 7.4l28.3-27c-11.3-10.7-29.2-19.8-53.3-19.8-36.2 0-59.8 21.5-59.8 47.4 0 51.2 64.8 43.8 64.8 59.9 0 5.6-5.4 11.3-15.2 11.3-11.2 0-20-6.7-26.9-12.5l-28.5 27.1c11.5 11.2 29.9 24.7 62.9 24.7zm97.9-4.3v-113.4h-39.4v-35.9h126.8v35.9h-39.4v113.4zm-246.9 16.2h47.7v89.4c0 9.1 9 17.5 18.5 17.5 8.9 0 17.9-7.6 17.9-17.9v-89h47.6v88.3c0 35.1-29.1 63-66.7 63-37.9 0-65-30.4-65-64.9zm190.5 149.3v-53.4l-56.1-96h48.3l31.8 51.4 31.9-51.4h48.4l-56.3 96.5v52.9zm104.3-67.6-28.2 28.2v38l28.2 28.2h119.2v-94.4zm-11 53.5c-3.5 0-6.3-2.8-6.3-6.3s2.8-6.3 6.3-6.3 6.3 2.8 6.3 6.3-2.8 6.3-6.3 6.3z" fill="#fff" transform="translate(-137.5 -22.390163)"/></svg>